<svg xmlns="http://www.w3.org/2000/svg" width="65" height="64" stroke="#000" stroke-linecap="round" stroke-linejoin="round" fill="#fff" fill-rule="evenodd"><path d="M37.691.0151c-.4611 0-.8919.0983-1.285.2268.8428.5669 1.3039 1.304 1.5383 2.1468.0151.1134.0491.1966.0642.3137s.0378.1966.0378.3024c.068 1.4552-.378 1.6366-.6955 2.4945-.4799 1.1075-.3477 2.298.2268 3.2505a1.963 1.963 0 0 0 .1966.3628c-.6275-4.1802 2.8611-4.8114 3.5036-6.1154.0492-1.1414-.8919-1.9011-1.6365-2.4303C38.9308.1361 38.2806 0 37.691 0zM42.9447.96c-.0681.378-.0152.2797-.0378.48l-.0378.4309-.1134.3969-.1323.3968-.1814.378-.1323.1965-.0983.1512-.2494.3288c-.0983.0983-.1815.2155-.3024.3024s-.1965.1966-.3137.2797c-.3477.2646-.7446.4611-1.1074.7106-.1134.0831-.2268.1511-.3289.2494a2.43 2.43 0 0 0-.3136.2646c-.1135.0982-.1966.1965-.3024.3137s-.1814.2154-.2495.3288l-.2268.3478-.1814.3779-.1323.378-.1133.4157c-.0152.0681-.0152.1512-.0378.2155s-.0152.1322-.0379.1965l-.0151.4157.0151.3024c0 .1323.0152.2646.0492.4158l.0832.3968.1322.3969.1134.2268L34.8903 8.78l-1.9162-.4913-1.0432-.2495-3.0086-.446c-.0378 0-.0491-.0151-.0831-.0151l-2.9595-.1512-2.1656.0832c-1.0092.068-2.0183.1965-3.0237.3628l-.7446.1323-1.4891.3288-.7446.1966-.7106.3137-.5443.2494c-.0377.0151-.068.0151-.0831.0378l-.4611.2268c-.0492.0151-.0832.0378-.1134.0491l-.514.2646c-.1134.0492-.2268.1134-.3289.1663-.0491.0378-.1134.0643-.1511.0832l-.431.2494a4.153 4.153 0 0 0-.3968.2495l-.3288.2268-.3629.2645-.2797.2268c-.0377.0151-.068.0491-.0982.068l-.2495.2155c-.0151.0378-.0491.0491-.068.068l-.3023.2797-.3289.3137-.2797.3024c-.0378.0378-.0831.068-.1134.0982l-.2797.2986c-.0151.0378-.0491.0492-.068.0832l-.378.3968-.8919.858c-.3024.2646-.6124.514-.926.7257l-.9903.6274c-.3288.1814-.6803.3477-1.0431.4913l-1.0735.3969c-.6954.1512-1.406.4309-2.0183.48-.1323 0-.2797.0378-.4157.0491l-.4158.0983-.3969.1512a4.248 4.248 0 0 0-.3968.1814c-.1134.0832-.2495.1512-.3628.2268s-.2268.1814-.3289.2797l-.3288.3024-.2797.3288-.2494.3779a2.903 2.903 0 0 0-.2306.3818l-.1814.4309-.1512.4308-.0831.3969c-.0492.1965-.0492.3969-.0681.4913s0 .2193 0 .3364a.949.949 0 0 0 .0151.2155 1.904 1.904 0 0 0 .0681.3137l.1133.3023c.0492.1134.1135.2155.1814.3137l.2155.3024.2797.2646a2.424 2.424 0 0 0 .3137.2646c.3968.3477.4914.4611 1.0091.7256.0832.0492.1664.0832.2646.1323.0492.0492.0492.0643.0681.0983.0151.1323.0491.2646.0831.3969a2.227 2.227 0 0 0 .1323.3968l.1322.3024c.0152.0378.0379.068.0492.0831l.1965.3629.2495.3477.2797.3137c.0983.0983.1965.1814.3137.2797l.3288.2495c.1134.0831.2268.1511.3629.2154a2.682 2.682 0 0 0 .3817.1814c.0983.0492.2154.0831.3289.1134l.2796.0831c-.0491.892-.068 1.7387.0681 2.0335.1511.3288.8768-.6803 1.6025-1.8331-.0982 1.1414-.1663 2.4794 0 2.8725s1.1717-.8769 2.0334-2.298c11.7168-2.71 22.4131 5.3897 23.5356 16.8267-.2154-1.7839-2.4114-2.778-3.4205-2.5323-.4914 1.2246-1.338 2.7969-2.6948 3.7683.1133-1.0961.0642-2.2149-.1664-3.3072-.3697 1.5216-1.069 2.9435-2.0485 4.1652-1.5686.1133-3.1371-.6426-3.9686-1.784-.068-.0492-.0831-.1512-.1323-.2155l-.1323-.3477c-.0491-.1134-.0831-.2268-.0982-.3477s-.0152-.2268-.0152-.3628v-.2495c.0152-.1134.0492-.2268.0832-.3477l.1134-.3477c.068-.1134.1134-.2268.1965-.3478.2797-.7559.2797-1.4362-.2268-1.8142-.0982-.068-.1965-.1134-.3137-.1663-.068-.0151-.1512-.0491-.2154-.068l-.1323-.0492-.3477-.0831c-.113-.0327-.2301-.0492-.3478-.0491a2.657 2.657 0 0 0-.3628-.034c-.0831 0-.1663.0151-.2494.0151a1.283 1.283 0 0 0-.3629.0491l-.3477.0642-.3477.1134-.3288.1512-.3138.1663c-3.8552 2.5135-1.5496 8.3908 1.0735 10.0991-.9903.1814-2.0033.3969-2.2791.6123.6803.4611 1.4211.8315 2.1997 1.1415l2.6759.7559c1.372.3023 2.7591.3968 4.1651.3137 7.3577-.5388 13.3514-6.1206 14.4116-13.4214l.0983.4309.1512.926.0681.446.0378.4913.0378.5443v.2646c0 .0831.0151.1814.0151.2646s-.0151.1965-.0151.3023v.2268c0 .1134-.0152.2154-.0152.3288 0 .0643 0 .1323-.0151.2154l-.0151.3629c-.0151.0491-.0151.0983-.0151.1512l-.0492.378c0 .0491 0 .0982-.0151.1511l-.0642.48v.0378l-.0983.4611-.0983.4914-.1323.514-.1322.5141-.1664.5291-.3628.96-.1965.48-.2268.4611c-.0151.0492-.0378.0832-.0491.1134-1.1074 2.2149-2.6949 4.1198-4.6792 5.6014-.1323.0831-.2646.1814-.3968.2797-.0378.0378-.0832.0491-.1134.0831l-.3629.2495.0492.0982h.0151l.6954-.0982h.0152l1.285-.2268c.1134-.0151.2495-.0491.3629-.0831l.2268-.0492.3477-.0642.3023-.0832c1.6517-.3969 3.2505-.9449 4.7926-1.5874-2.6269 3.5906-6.1494 6.4782-10.2654 8.3794 1.9011-.1323 3.8022-.446 5.6316-.9752 6.6596-1.9654 12.2648-6.4442 15.6211-12.4802a26.382 26.382 0 0 1-4.4449 10.6282c1.6026-1.0583 3.0729-2.2791 4.4146-3.6662a26.193 26.193 0 0 0 6.9583-14.0488c.5669 2.608.7257 5.3066.48 7.9674 11.9322-16.6453.9903-33.903-3.5907-38.4461-.015-.0378-.0377-.0491-.0377-.0832-.0378.1966-.0492.3969-.0643.5934-.0491.378-.0983.7446-.1663 1.1075s-.1814.7257-.2797 1.0961-.2494.7105-.3968 1.0583-.3137.6803-.4914 1.0091c-.1821.3233-.3802.6374-.5934.9411-.2154.3137-.446.6123-.6803.892a12.348 12.348 0 0 1-.7786.8277 11.779 11.779 0 0 1-.48.4158l-.378.3288c-.2952.2342-.6044.45-.926.6463-.3156.2036-.6411.3916-.9751.5632-.3478.1663-.6954.3137-1.0432.4611a11.615 11.615 0 0 1-1.0734.3477c-.3629.0983-.7446.1814-1.1074.2495s-.7559.0983-1.1225.1323c-.2646.0151-.5292.0378-.756.0378-.378 0-.7559-.0378-1.1225-.0681s-.7559-.0831-1.1263-.1663a8.362 8.362 0 0 1-1.1075-.2796h-.0151c.3629-.0379.7257-.0681 1.0961-.1323s.7446-.1512 1.1074-.2495.7257-.2154 1.0734-.3477.7106-.3024 1.0432-.4611a11.574 11.574 0 0 0 .9902-.5443c.3138-.2154.6275-.4309.926-.6614s.5777-.4792.8429-.7446c.2797-.2495.5291-.5291.7786-.8088s.48-.5934.6954-.892c.0378-.0492.0681-.1134.0983-.1663l.48-.7559c.1815-.3289.3477-.6615.4914-1.0092s.2796-.6954.3968-1.0583.1966-.7106.2797-1.0734.1323-.7446.1663-1.1074.0643-.756.0643-1.1225a7.771 7.771 0 0 0-.0378-.756c-.0378-.378-.0832-.7446-.1323-1.1074-.0658-.3728-.149-.7424-.2494-1.1074-.1134-.3478-.2268-.7106-.3629-1.0583s-.3024-.6955-.4611-1.0205-.3628-.6614-.5669-.9751-.431-.6124-.6615-.9071l-.7559-.8429c-.1396-.1414-.2833-.2788-.4308-.412-.7407-.5756-1.5075-1.1166-2.298-1.6214-.1135-.0643-.2155-.1134-.3289-.1663-.5443-.3478-1.0583-.5292-1.5685-.6955z" stroke="none" fill="#000"/></svg>